<?xml version="1.0" encoding="utf-8"?>
<!-- Svg Vector Icons : http://www.onlinewebfonts.com/icon -->
<!DOCTYPE svg PUBLIC "-//W3C//DTD SVG 1.1//EN" "http://www.w3.org/Graphics/SVG/1.1/DTD/svg11.dtd">
<svg version="1.1" xmlns="http://www.w3.org/2000/svg" xmlns:xlink="http://www.w3.org/1999/xlink" x="0px" y="0px" viewBox="0 0 256 256" enable-background="new 0 0 256 256" xml:space="preserve">
<metadata> Svg Vector Icons : http://www.onlinewebfonts.com/icon </metadata>
<g><g><g><path fill="#000000" d="M10,128v118.3h118h118V128V9.7H128H10V128z M232.3,44.6l-0.2,20.8H128H23.8l-0.2-20.8l-0.1-20.7H128h104.4L232.3,44.6z M232.3,155.8l0.1,76.4h-10.6h-10.6v-10.3v-10.3h-20.9h-20.9v10.3v10.3h-10.3h-10.3v-3.5v-3.5H128h-20.9v3.5v3.5H96.8H86.5l-0.1-24.3l-0.2-24.3l-20.7-0.2l-20.8-0.1v24.4v24.4H34.1H23.6v-76.1c0-41.9,0.2-76.3,0.4-76.5c0.2-0.2,47.1-0.3,104.3-0.3l103.9,0.2L232.3,155.8z"/><path fill="#000000" d="M44.7,44.7v6.8h13.8h13.8v-6.8v-6.8H58.6H44.7V44.7z"/><path fill="#000000" d="M100.1,44.7v6.8h55.6h55.6v-6.8v-6.8h-55.6h-55.6V44.7z"/><path fill="#000000" d="M44.7,135.1v34.7h20.9h20.9v-34.7v-34.7H65.6H44.7V135.1L44.7,135.1z"/><path fill="#000000" d="M107.1,120.4v20.1H128h20.9v-20.1v-20.1H128h-20.9V120.4z"/><path fill="#000000" d="M169.5,128v27.7h20.9h20.9V128v-27.7h-20.9h-20.9V128L169.5,128z"/><path fill="#000000" d="M107.2,183.7l0.2,27.6H128h20.6l0.2-27.6l0.1-27.5H128h-20.9L107.2,183.7z"/><path fill="#000000" d="M169.5,183.6v13.8h20.9h20.9v-13.8v-13.8h-20.9h-20.9V183.6L169.5,183.6z"/></g></g></g>
</svg>